<?xml version="1.0" encoding="UTF-8" standalone="no"?>
<!-- Created with Inkscape (http://www.inkscape.org/) --><svg height="128" id="svg2" inkscape:export-filename="/home/david/Oxygen/kdelibs/scalable/actions/rss.png" inkscape:export-xdpi="90" inkscape:export-ydpi="90" inkscape:output_extension="org.inkscape.output.svgz.inkscape" inkscape:version="0.45+devel" sodipodi:docbase="/home/david/Oxygen/kdelibs/scalable/actions" sodipodi:docname="system-log-out.svgz" sodipodi:version="0.32" version="1.0" width="128" xmlns="http://www.w3.org/2000/svg" xmlns:cc="http://creativecommons.org/ns#" xmlns:dc="http://purl.org/dc/elements/1.1/" xmlns:inkscape="http://www.inkscape.org/namespaces/inkscape" xmlns:rdf="http://www.w3.org/1999/02/22-rdf-syntax-ns#" xmlns:sodipodi="http://sodipodi.sourceforge.net/DTD/sodipodi-0.dtd" xmlns:svg="http://www.w3.org/2000/svg" xmlns:xlink="http://www.w3.org/1999/xlink">
  <metadata>
    <rdf:RDF xmlns:cc="http://web.resource.org/cc/" xmlns:dc="http://purl.org/dc/elements/1.1/" xmlns:rdf="http://www.w3.org/1999/02/22-rdf-syntax-ns#">
      <cc:Work rdf:about="">
        <dc:title></dc:title>
        <dc:description></dc:description>
        <dc:subject>
          <rdf:Bag>
            <rdf:li>unsorted</rdf:li>
          </rdf:Bag>
        </dc:subject>
        <dc:publisher>
          <cc:Agent rdf:about="http://www.openclipart.org/">
            <dc:title>Open Clip Art Library, Source: Oxygen Icons, Source: Oxygen Icons, Source: Oxygen Icons, Source: Oxygen Icons</dc:title>
          </cc:Agent>
        </dc:publisher>
        <dc:creator>
          <cc:Agent>
            <dc:title></dc:title>
          </cc:Agent>
        </dc:creator>
        <dc:rights>
          <cc:Agent>
            <dc:title></dc:title>
          </cc:Agent>
        </dc:rights>
        <dc:date></dc:date>
        <dc:format>image/svg+xml</dc:format>
        <dc:type rdf:resource="http://purl.org/dc/dcmitype/StillImage"/>
        <cc:license rdf:resource="http://creativecommons.org/licenses/by-sa/3.0/ or http://creativecommons.org/licenses/LGPL/2.1/"/>
        <dc:language>en</dc:language>
      </cc:Work>
    </rdf:RDF>
  </metadata>
  <defs id="defs4">
    <linearGradient id="linearGradient2990">
      <stop id="stop2992" offset="0" style="stop-color:#cccccc;stop-opacity:1;"/>
      <stop id="stop2994" offset="1" style="stop-color:#f1f1f1;stop-opacity:1;"/>
    </linearGradient>
    <linearGradient id="linearGradient3237">
      <stop id="stop3239" offset="0" style="stop-color:#ffeb8b;stop-opacity:1;"/>
      <stop id="stop3241" offset="1" style="stop-color:#ffffff;stop-opacity:0;"/>
    </linearGradient>
    <linearGradient id="linearGradient6674">
      <stop id="stop6676" offset="0" style="stop-color:#bf0000;stop-opacity:1;"/>
      <stop id="stop6678" offset="1" style="stop-color:#ff1111;stop-opacity:0;"/>
    </linearGradient>
    <linearGradient id="linearGradient6666">
      <stop id="stop6668" offset="0" style="stop-color:#ff5900;stop-opacity:1;"/>
      <stop id="stop6670" offset="1" style="stop-color:#8d0000;stop-opacity:1;"/>
    </linearGradient>
    <linearGradient id="linearGradient6643">
      <stop id="stop6645" offset="0" style="stop-color:#ff6565;stop-opacity:1;"/>
      <stop id="stop6647" offset="1" style="stop-color:#ffdfbf;stop-opacity:0;"/>
    </linearGradient>
    <linearGradient id="linearGradient6631">
      <stop id="stop6633" offset="0" style="stop-color:#703700;stop-opacity:1;"/>
      <stop id="stop6635" offset="1" style="stop-color:#bf5e00;stop-opacity:0;"/>
    </linearGradient>
    <linearGradient id="linearGradient6610" inkscape:collect="always">
      <stop id="stop6612" offset="0" style="stop-color:#ffbf80;stop-opacity:1;"/>
      <stop id="stop6614" offset="1" style="stop-color:#ffbf80;stop-opacity:0;"/>
    </linearGradient>
    <linearGradient id="linearGradient6446">
      <stop id="stop6448" offset="0" style="stop-color:#ffffff;stop-opacity:1;"/>
      <stop id="stop6450" offset="1" style="stop-color:#ffffff;stop-opacity:0;"/>
    </linearGradient>
    <linearGradient id="linearGradient6404">
      <stop id="stop6406" offset="0" style="stop-color:#770000;stop-opacity:1;"/>
      <stop id="stop6408" offset="1" style="stop-color:#c10000;stop-opacity:1;"/>
    </linearGradient>
    <linearGradient id="linearGradient9643">
      <stop id="stop9645" offset="0" style="stop-color:#ff0000;stop-opacity:1;"/>
      <stop id="stop9647" offset="1" style="stop-color:#620000;stop-opacity:1;"/>
    </linearGradient>
    <radialGradient cx="12.040753" cy="118.14538" fx="12.040753" fy="118.14538" gradientTransform="matrix(1.7951011,0,0,1.7951011,-9.5736166,-93.937523)" gradientUnits="userSpaceOnUse" id="radialGradient9651" inkscape:collect="always" r="42.559486" spreadMethod="reflect" xlink:href="#linearGradient9643"/>
    <radialGradient cx="42.700352" cy="103.5803" fx="42.700352" fy="103.5803" gradientTransform="matrix(1.1890799,0,0,1.1890799,-114.77413,-31.375729)" gradientUnits="userSpaceOnUse" id="radialGradient9692" inkscape:collect="always" r="42.559486" spreadMethod="pad" xlink:href="#linearGradient6666"/>
    <linearGradient gradientUnits="userSpaceOnUse" id="linearGradient6410" inkscape:collect="always" x1="39.741936" x2="11.458064" xlink:href="#linearGradient6404" y1="113.54839" y2="13.006452"/>
    <linearGradient gradientTransform="translate(-7.5870968,-7.3806452)" gradientUnits="userSpaceOnUse" id="linearGradient6452" inkscape:collect="always" spreadMethod="reflect" x1="21.094994" x2="15.189133" xlink:href="#linearGradient6446" y1="21.101994" y2="27.007854"/>
    <filter id="filter6458" inkscape:collect="always">
      <feGaussianBlur id="feGaussianBlur6460" inkscape:collect="always" stdDeviation="0.28444187"/>
    </filter>
    <linearGradient gradientTransform="translate(0.4129032,0.6193548)" gradientUnits="userSpaceOnUse" id="linearGradient6464" inkscape:collect="always" spreadMethod="reflect" x1="21.094994" x2="15.126888" xlink:href="#linearGradient6446" y1="21.101994" y2="27.070099"/>
    <linearGradient gradientTransform="translate(0.4129032,0.6193548)" gradientUnits="userSpaceOnUse" id="linearGradient6470" inkscape:collect="always" spreadMethod="reflect" x1="21.094994" x2="13.96104" xlink:href="#linearGradient6446" y1="21.101994" y2="28.235947"/>
    <linearGradient gradientTransform="translate(0.4129032,0.6193548)" gradientUnits="userSpaceOnUse" id="linearGradient6472" inkscape:collect="always" spreadMethod="reflect" x1="21.094994" x2="13.96104" xlink:href="#linearGradient6446" y1="21.101994" y2="28.235947"/>
    <linearGradient gradientUnits="userSpaceOnUse" id="linearGradient6637" inkscape:collect="always" x1="55.329033" x2="55.329033" xlink:href="#linearGradient6631" y1="112" y2="74.913147"/>
    <linearGradient gradientUnits="userSpaceOnUse" id="linearGradient6649" inkscape:collect="always" x1="62.038712" x2="62.038712" xlink:href="#linearGradient6643" y1="15.91371" y2="50.728985"/>
    <linearGradient gradientTransform="translate(0,1.6516129)" gradientUnits="userSpaceOnUse" id="linearGradient6655" inkscape:collect="always" x1="59.225807" x2="59.225807" xlink:href="#linearGradient6610" y1="20.283871" y2="117.32368"/>
    <linearGradient gradientUnits="userSpaceOnUse" id="linearGradient6657" inkscape:collect="always" x1="59.225807" x2="59.225807" xlink:href="#linearGradient6610" y1="20.283871" y2="117.32368"/>
    <linearGradient gradientUnits="userSpaceOnUse" id="linearGradient6680" inkscape:collect="always" x1="19.096775" x2="80.047699" xlink:href="#linearGradient6674" y1="50.580647" y2="66.897575"/>
    <linearGradient gradientUnits="userSpaceOnUse" id="linearGradient2816" inkscape:collect="always" x1="59.225807" x2="59.225807" xlink:href="#linearGradient6446" y1="-31.712746" y2="98.167175"/>
    <linearGradient gradientTransform="translate(0.2623629,1)" gradientUnits="userSpaceOnUse" id="linearGradient3209" inkscape:collect="always" x1="59.225807" x2="59.225807" xlink:href="#linearGradient6446" y1="7.8973217" y2="46.228859"/>
    <linearGradient gradientTransform="translate(0.2332229,1.9150941)" gradientUnits="userSpaceOnUse" id="linearGradient3225" inkscape:collect="always" x1="92.848534" x2="31.376678" xlink:href="#linearGradient6446" y1="60.664852" y2="21.03125"/>
    <linearGradient gradientTransform="translate(0.2623629,1)" gradientUnits="userSpaceOnUse" id="linearGradient3231" inkscape:collect="always" x1="59.225807" x2="59.225807" xlink:href="#linearGradient6446" y1="7.8973217" y2="46.228859"/>
    <linearGradient gradientTransform="translate(0.2332229,1.9150941)" gradientUnits="userSpaceOnUse" id="linearGradient3233" inkscape:collect="always" x1="115.76678" x2="31.376678" xlink:href="#linearGradient6446" y1="71.084908" y2="21.03125"/>
    <linearGradient gradientUnits="userSpaceOnUse" id="linearGradient3243" inkscape:collect="always" x1="-60.945251" x2="-59.415245" xlink:href="#linearGradient3237" y1="105.83054" y2="45.631207"/>
    <filter id="filter3281" inkscape:collect="always">
      <feGaussianBlur id="feGaussianBlur3283" inkscape:collect="always" stdDeviation="0.32872878"/>
    </filter>
    <linearGradient gradientUnits="userSpaceOnUse" id="linearGradient3289" inkscape:collect="always" x1="60.402065" x2="60.402065" xlink:href="#linearGradient6674" y1="64.076149" y2="-20.962214"/>
    <filter id="filter3319" inkscape:collect="always">
      <feGaussianBlur id="feGaussianBlur3321" inkscape:collect="always" stdDeviation="1.6179775"/>
    </filter>
    <radialGradient cx="64" cy="81.325775" fx="66.881805" fy="105.27442" gradientTransform="matrix(0.712348,-0.1260581,0.1345724,0.7604617,7.4655205,20.174132)" gradientUnits="userSpaceOnUse" id="radialGradient2996" inkscape:collect="always" r="43.474762" spreadMethod="reflect" xlink:href="#linearGradient2990"/>
    <radialGradient cx="64" cy="81.325775" fx="66.881805" fy="105.27442" gradientTransform="matrix(0.712348,-0.1260581,0.1345724,0.7604617,-100.53448,20.174132)" gradientUnits="userSpaceOnUse" id="radialGradient3000" inkscape:collect="always" r="43.474762" spreadMethod="reflect" xlink:href="#linearGradient2990"/>
    <filter id="filter3035" inkscape:collect="always">
      <feGaussianBlur id="feGaussianBlur3037" inkscape:collect="always" stdDeviation="0.60200945"/>
    </filter>
    <filter id="filter3104" inkscape:collect="always">
      <feGaussianBlur id="feGaussianBlur3106" inkscape:collect="always" stdDeviation="0.4217763"/>
    </filter>
    <clipPath clipPathUnits="userSpaceOnUse" id="clipPath3108">
      <path d="M -166.22608,25.639042 C -168.37082,25.690988 -170.41095,26.576535 -171.91358,28.107792 C -188.83826,45.032475 -188.83826,72.745609 -171.91358,89.670296 C -154.9889,106.59499 -127.27576,106.59498 -110.35108,89.670296 C -93.426397,72.745608 -93.426407,45.032476 -110.35108,28.107792 C -113.57849,24.889007 -118.78854,24.911628 -122.00733,28.139042 C -125.22611,31.366456 -125.23474,36.576507 -122.00733,39.795292 C -111.39346,50.409165 -111.39346,67.400168 -122.00733,78.014046 C -132.62121,88.627926 -149.64346,88.627916 -160.25733,78.014046 C -170.8712,67.400167 -170.8712,50.409167 -160.25733,39.795292 C -157.82392,37.426791 -157.09428,33.799307 -158.41358,30.670292 C -159.73287,27.541276 -162.83146,25.550254 -166.22608,25.639042 z M -141.25733,26.357792 C -145.38715,26.426713 -148.68411,29.821465 -148.63233,33.951542 L -148.63233,65.951542 C -148.67058,68.656311 -147.24981,71.181744 -144.91358,72.545292 C -142.57735,73.908838 -139.68731,73.90884 -137.35108,72.545292 C -135.01484,71.181742 -133.59407,68.656311 -133.63233,65.951542 L -133.63233,33.951542 C -133.60691,31.924427 -134.41464,29.975845 -135.85108,28.545292 C -137.28752,27.114738 -139.23033,26.324051 -141.25733,26.357792 z" id="path3110" style="fill:url(#radialGradient3112);fill-opacity:1;stroke:none;stroke-width:16.49500084;stroke-linecap:round;stroke-linejoin:round;stroke-miterlimit:4;stroke-dasharray:none;stroke-dashoffset:4.15;stroke-opacity:1"/>
    </clipPath>
    <radialGradient cx="64" cy="81.325775" fx="66.881805" fy="105.27442" gradientTransform="matrix(0.712348,-0.1260581,0.1345724,0.7604617,-197.66681,20.174132)" gradientUnits="userSpaceOnUse" id="radialGradient3112" inkscape:collect="always" r="43.474762" spreadMethod="reflect" xlink:href="#linearGradient2990"/>
    <clipPath clipPathUnits="userSpaceOnUse" id="clipPath3114">
      <path d="M -69.09375,25.639042 C -71.238499,25.690988 -73.27862,26.576535 -74.78125,28.107792 C -91.705938,45.032475 -91.705939,72.745609 -74.78125,89.670296 C -57.856572,106.59499 -30.143439,106.59498 -13.21875,89.670296 C 3.70593,72.745608 3.70592,45.032476 -13.21875,28.107792 C -16.446164,24.889007 -21.656215,24.911628 -24.875,28.139042 C -28.093785,31.366456 -28.102414,36.576507 -24.875,39.795292 C -14.261134,50.409165 -14.261131,67.400168 -24.875,78.014046 C -35.488884,88.627926 -52.51113,88.627916 -63.125,78.014046 C -73.738879,67.400167 -73.738878,50.409167 -63.125,39.795292 C -60.691591,37.426791 -59.961952,33.799307 -61.28125,30.670292 C -62.600548,27.541276 -65.699137,25.550254 -69.09375,25.639042 z M -44.125,26.357792 C -48.254827,26.426713 -51.551787,29.821465 -51.5,33.951542 L -51.5,65.951542 C -51.538252,68.656311 -50.117481,71.181744 -47.78125,72.545292 C -45.44502,73.908838 -42.554982,73.90884 -40.21875,72.545292 C -37.882517,71.181742 -36.461748,68.656311 -36.5,65.951542 L -36.5,33.951542 C -36.474583,31.924427 -37.28231,29.975845 -38.71875,28.545292 C -40.155192,27.114738 -42.098006,26.324051 -44.125,26.357792 z" id="path3116" style="fill:url(#radialGradient3118);fill-opacity:1;stroke:none;stroke-width:16.49500084;stroke-linecap:round;stroke-linejoin:round;stroke-miterlimit:4;stroke-dasharray:none;stroke-dashoffset:4.15;stroke-opacity:1"/>
    </clipPath>
    <radialGradient cx="64" cy="81.325775" fx="66.881805" fy="105.27442" gradientTransform="matrix(0.712348,-0.1260581,0.1345724,0.7604617,-100.53448,20.174132)" gradientUnits="userSpaceOnUse" id="radialGradient3118" inkscape:collect="always" r="43.474762" spreadMethod="reflect" xlink:href="#linearGradient2990"/>
  </defs>
  <sodipodi:namedview bordercolor="#666666" borderlayer="true" borderopacity="1.0" gridempspacing="2" gridspacingx="4px" gridspacingy="4px" gridtolerance="10000" guidetolerance="10" height="128px" id="base" inkscape:current-layer="layer1" inkscape:cx="-0.015404193" inkscape:cy="87.277079" inkscape:document-units="px" inkscape:pageopacity="0.0" inkscape:pageshadow="2" inkscape:showpageshadow="false" inkscape:window-height="750" inkscape:window-width="986" inkscape:window-x="766" inkscape:window-y="271" inkscape:zoom="1.4722184" objecttolerance="10" pagecolor="#ffffff" showborder="true" showgrid="false" width="128px">
    <inkscape:grid empspacing="2" id="grid3285" spacingx="4px" spacingy="4px" type="xygrid"/>
  </sodipodi:namedview>
  <g id="layer1" inkscape:groupmode="layer" inkscape:label="Layer 1">
    <path d="M 18.083601,8 L 109.9164,8 C 115.50271,8 120,12.497286 120,18.083601 L 120,109.9164 C 120,115.50271 115.50271,120 109.9164,120 L 18.083601,120 C 12.497286,120 8,115.50271 8,109.9164 L 8,18.083601 C 8,12.497286 12.497286,8 18.083601,8 z" id="rect3287" sodipodi:nodetypes="ccccccccc" style="fill:url(#linearGradient3289);fill-opacity:1;stroke:none;stroke-width:3;stroke-linecap:round;stroke-linejoin:round;stroke-miterlimit:4;stroke-opacity:1;filter:url(#filter3319)"/>
    <path d="M 18.083601,8 L 109.9164,8 C 115.50271,8 120,12.497286 120,18.083601 L 120,109.9164 C 120,115.50271 115.50271,120 109.9164,120 L 18.083601,120 C 12.497286,120 8,115.50271 8,109.9164 L 8,18.083601 C 8,12.497286 12.497286,8 18.083601,8 z" id="rect8666" sodipodi:nodetypes="ccccccccc" style="fill:url(#linearGradient6410);fill-opacity:1;stroke:none;stroke-width:3;stroke-linecap:round;stroke-linejoin:round;stroke-miterlimit:4;stroke-opacity:1"/>
    <path d="M 18.083601,8 L 109.9164,8 C 115.50271,8 120,12.497286 120,18.083601 L 120,109.9164 C 120,115.50271 115.50271,120 109.9164,120 L 18.083601,120 C 12.497286,120 8,115.50271 8,109.9164 L 8,18.083601 C 8,12.497286 12.497286,8 18.083601,8 z" id="rect6672" sodipodi:nodetypes="ccccccccc" style="opacity:0.08290154;fill:url(#linearGradient6680);fill-opacity:1;stroke:none;stroke-width:3;stroke-linecap:round;stroke-linejoin:round;stroke-miterlimit:4;stroke-opacity:1"/>
    <path d="M -109.38386,12.614708 L -19.616139,12.614708 C -15.737346,12.614708 -12.614708,15.737346 -12.614708,19.616139 L -12.614708,108.38386 C -12.614708,112.26265 -15.737346,115.38529 -19.616139,115.38529 L -109.38386,115.38529 C -113.26265,115.38529 -116.38529,112.26265 -116.38529,108.38386 L -116.38529,19.616139 C -116.38529,15.737346 -113.26265,12.614708 -109.38386,12.614708 z" id="rect9641" sodipodi:nodetypes="ccccccccc" style="fill:url(#radialGradient9692);fill-opacity:1;stroke:none;stroke-width:3;stroke-linecap:round;stroke-linejoin:round;stroke-miterlimit:4;stroke-opacity:1" transform="scale(-1,1)"/>
    <path d="M 17.906944,8.299378 C 13.216769,8.299378 8.509435,11.867379 8.509435,17.698118 L 12.77674,17.639205 C 13.229113,15.50937 15.628704,13.368243 17.303345,13.03582 L 17.906944,8.299378 z" id="rect6433" sodipodi:nodetypes="ccccc" style="opacity:0.8876405;fill:url(#linearGradient6452);fill-opacity:1;stroke:none;stroke-width:3;stroke-linecap:round;stroke-linejoin:round;stroke-miterlimit:4;stroke-dasharray:none;stroke-opacity:1;filter:url(#filter6458)"/>
    <path d="M 25.397509,16.46919 C 20.707334,16.46919 16.429601,20.123899 16.429601,25.954638 L 20.77674,25.639205 C 21.229113,23.50937 23.628704,21.368243 25.303345,21.03582 L 25.397509,16.46919 z" id="path6462" sodipodi:nodetypes="ccccc" style="opacity:0.8689139;fill:url(#linearGradient6464);fill-opacity:1;stroke:none;stroke-width:3;stroke-linecap:round;stroke-linejoin:round;stroke-miterlimit:4;stroke-dasharray:none;stroke-opacity:1;filter:url(#filter6458)" transform="matrix(-1,0,0,1,135.86741,-8)"/>
    <path d="M 8,105.875 L 8,109.90625 C 8,115.49256 12.507435,120 18.09375,120 L 109.90625,120 C 115.49256,120 120,115.49257 120,109.90625 L 120,105.875 C 120,111.46131 115.49256,115.96875 109.90625,115.96875 L 18.09375,115.96875 C 12.507435,115.96875 8,111.46131 8,105.875 z" id="rect6626" sodipodi:nodetypes="ccccccccc" style="opacity:0.08290155;fill:url(#linearGradient6637);fill-opacity:1.0;stroke:none;stroke-width:3;stroke-linecap:round;stroke-linejoin:round;stroke-miterlimit:4;stroke-dasharray:none;stroke-opacity:1"/>
    <path d="M 26.246568,16.978625 C 21.556393,16.978625 16.769225,20.633334 16.769225,26.464073 L 20.77674,25.639205 C 21.229113,23.50937 23.628704,21.368243 25.303345,21.03582 L 26.246568,16.978625 z" id="path6466" sodipodi:nodetypes="ccccc" style="opacity:0.32642487;fill:url(#linearGradient6470);fill-opacity:1;stroke:none;stroke-width:3;stroke-linecap:round;stroke-linejoin:round;stroke-miterlimit:4;stroke-dasharray:none;stroke-opacity:1;filter:url(#filter6458)" transform="matrix(1,0,0,-1,-8,136.08786)"/>
    <path d="M 26.246568,16.978625 C 21.556393,16.978625 16.769225,20.633334 16.769225,26.464073 L 20.77674,25.639205 C 21.229113,23.50937 23.628704,21.368243 25.303345,21.03582 L 26.246568,16.978625 z" id="path6468" sodipodi:nodetypes="ccccc" style="opacity:0.17616583;fill:url(#linearGradient6472);fill-opacity:1;stroke:none;stroke-width:3;stroke-linecap:round;stroke-linejoin:round;stroke-miterlimit:4;stroke-dasharray:none;stroke-opacity:1;filter:url(#filter6458)" transform="matrix(-1,0,0,-1,135.86741,136.08786)"/>
    <path d="M 8,22.03871 L 8,18.00746 C 8,12.42115 12.507435,7.91371 18.09375,7.91371 L 109.90625,7.91371 C 115.49256,7.91371 120,12.42114 120,18.00746 L 120,22.03871 C 120,16.4524 115.49256,11.94496 109.90625,11.94496 L 18.09375,11.94496 C 12.507435,11.94496 8,16.4524 8,22.03871 z" id="path6639" sodipodi:nodetypes="ccccccccc" style="opacity:0.38860103;fill:url(#linearGradient6649);fill-opacity:1;stroke:none;stroke-width:3;stroke-linecap:round;stroke-linejoin:round;stroke-miterlimit:4;stroke-dasharray:none;stroke-opacity:1"/>
    <g id="g3227" transform="translate(0,-1)">
      <path d="M 19.441303,13.28125 C 15.451078,13.28125 12.253803,16.478525 12.253803,20.46875 L 12.253803,21.46875 C 12.253803,17.478525 15.451078,14.28125 19.441303,14.28125 L 109.0663,14.28125 C 113.05653,14.28125 116.2538,17.478525 116.2538,21.46875 L 116.2538,20.46875 C 116.2538,16.478525 113.05653,13.28125 109.0663,13.28125 L 19.441303,13.28125 z" id="path3207" sodipodi:nodetypes="ccccccccc" style="opacity:1;fill:url(#linearGradient3231);fill-opacity:1;stroke:none;stroke-width:3;stroke-linecap:round;stroke-linejoin:round;stroke-miterlimit:4;stroke-dasharray:none;stroke-opacity:1"/>
      <path d="M 112.21077,14.946344 C 113.80613,16.261139 114.83577,18.233092 114.83577,20.477594 L 114.83577,54.977594 C 114.6424,55.305632 114.39903,55.644913 114.11702,55.977594 C 86.869243,66.464121 40.804813,69.465921 12.242023,62.602594 L 12.242023,63.165094 C 41.223093,70.471727 87.827513,67.54278 115.52327,56.883844 C 115.80529,56.551161 116.04865,56.211882 116.24202,55.883844 L 116.24202,21.383844 C 116.24202,18.530833 114.60098,16.10976 112.21077,14.946344 z" id="path3215" sodipodi:nodetypes="cccccccccc" style="opacity:1;fill:url(#linearGradient3233);fill-opacity:1;stroke:none;stroke-width:3;stroke-linecap:round;stroke-linejoin:round;stroke-miterlimit:4;stroke-dasharray:none;stroke-opacity:1"/>
    </g>
    <path d="M -109.38386,13.614708 L -19.616139,13.614708 C -15.737346,13.614708 -12.614708,16.737346 -12.614708,20.616139 L -12.614708,108.38386 C -12.614708,112.26265 -15.737346,115.38529 -19.616139,115.38529 L -109.38386,115.38529 C -113.26265,115.38529 -116.38529,112.26265 -116.38529,108.38386 L -116.38529,20.616139 C -116.38529,16.737346 -113.26265,13.614708 -109.38386,13.614708 z" id="rect3235" sodipodi:nodetypes="ccccccccc" style="fill:none;fill-opacity:1;stroke:url(#linearGradient3243);stroke-width:1;stroke-linecap:round;stroke-linejoin:round;stroke-miterlimit:4;stroke-opacity:1;filter:url(#filter3281)" transform="scale(-1,1)"/>
    <path d="M 19.1875,12.28125 C 15.197275,12.28125 12,15.478525 12,19.46875 L 12,61.25 C 40.981077,68.556633 87.585499,65.627686 115.28125,54.96875 C 115.56327,54.636067 115.80663,54.296788 116,53.96875 L 116,19.46875 C 116,15.478525 112.80273,12.28125 108.8125,12.28125 L 19.1875,12.28125 z" id="rect9679" sodipodi:nodetypes="cccccccc" style="opacity:1;fill:url(#linearGradient2816);fill-opacity:1;stroke:none;stroke-width:3;stroke-linecap:round;stroke-linejoin:round;stroke-miterlimit:4;stroke-dasharray:none;stroke-opacity:1"/>
    <g id="g3120">
      <path d="M 38.90625,25.639042 C 36.761501,25.690988 34.72138,26.576535 33.21875,28.107792 C 16.294062,45.032475 16.294061,72.745609 33.21875,89.670296 C 50.143428,106.59499 77.856561,106.59498 94.78125,89.670296 C 111.70593,72.745608 111.70592,45.032476 94.78125,28.107792 C 91.553836,24.889007 86.343785,24.911628 83.125,28.139042 C 79.906215,31.366456 79.897586,36.576507 83.125,39.795292 C 93.738866,50.409165 93.738869,67.400168 83.125,78.014046 C 72.511116,88.627926 55.48887,88.627916 44.875,78.014046 C 34.261121,67.400167 34.261122,50.409167 44.875,39.795292 C 47.308409,37.426791 48.038048,33.799307 46.71875,30.670292 C 45.399452,27.541276 42.300863,25.550254 38.90625,25.639042 z M 63.875,26.357792 C 59.745173,26.426713 56.448213,29.821465 56.5,33.951542 L 56.5,65.951542 C 56.461748,68.656311 57.882519,71.181744 60.21875,72.545292 C 62.55498,73.908838 65.445018,73.90884 67.78125,72.545292 C 70.117483,71.181742 71.538252,68.656311 71.5,65.951542 L 71.5,33.951542 C 71.525417,31.924427 70.71769,29.975845 69.28125,28.545292 C 67.844808,27.114738 65.901994,26.324051 63.875,26.357792 z" id="path2968" style="fill:url(#radialGradient2996);fill-opacity:1;stroke:none;stroke-width:16.49500084;stroke-linecap:round;stroke-linejoin:round;stroke-miterlimit:4;stroke-dasharray:none;stroke-dashoffset:4.15;stroke-opacity:1"/>
      <path clip-path="url(#clipPath3114)" d="M -69.09375,24.624907 C -71.238499,24.676852 -73.27862,25.5624 -74.78125,27.093657 C -83.496145,35.808549 -87.728838,47.384882 -87.46875,58.874907 C -87.223736,48.050827 -82.991043,37.303449 -74.78125,29.093657 C -73.27862,27.5624 -71.238499,26.676852 -69.09375,26.624907 C -65.699137,26.536119 -62.600548,28.527144 -61.28125,31.656157 C -60.989765,32.34748 -60.813923,33.060123 -60.71875,33.781157 C -60.562998,32.401937 -60.718703,30.990365 -61.28125,29.656157 C -62.600548,26.527144 -65.699137,24.536119 -69.09375,24.624907 z M -19.0625,24.687407 C -21.170788,24.694141 -23.265608,25.5112 -24.875,27.124907 C -26.742048,28.996959 -27.5169,31.538014 -27.21875,33.968657 C -27.006797,32.197025 -26.234886,30.48844 -24.875,29.124907 C -21.656215,25.897493 -16.446164,25.874875 -13.21875,29.093657 C -5.0089658,37.303448 -0.77626489,48.050827 -0.53125,58.874907 C -0.2711633,47.384883 -4.5038642,35.80855 -13.21875,27.093657 C -14.832457,25.484264 -16.954212,24.680673 -19.0625,24.687407 z M -44.125,25.343657 C -48.254827,25.412577 -51.551787,28.80733 -51.5,32.937407 L -51.5,34.937407 C -51.551787,30.80733 -48.254827,27.412577 -44.125,27.343657 C -42.098006,27.309916 -40.155192,28.100606 -38.71875,29.531157 C -37.28231,30.96171 -36.474583,32.910295 -36.5,34.937407 L -36.5,32.937407 C -36.474583,30.910295 -37.28231,28.96171 -38.71875,27.531157 C -40.155192,26.100602 -42.098006,25.309916 -44.125,25.343657 z M -71.0625,59.187407 C -71.246543,66.318337 -68.610008,73.514897 -63.125,78.999907 C -52.51113,89.613777 -35.488884,89.613787 -24.875,78.999907 C -19.389998,73.514897 -16.753457,66.318337 -16.9375,59.187407 C -17.248453,65.651457 -19.899749,72.024647 -24.875,76.999907 C -35.488884,87.613787 -52.51113,87.613777 -63.125,76.999907 C -68.100256,72.024647 -70.751547,65.651457 -71.0625,59.187407 z" id="path3006" style="opacity:0.82608696;fill:#000000;fill-opacity:1;stroke:none;stroke-width:16.49500084;stroke-linecap:round;stroke-linejoin:round;stroke-miterlimit:4;stroke-dasharray:none;stroke-dashoffset:4.15;stroke-opacity:1;filter:url(#filter3035)" transform="translate(108.00965,0)"/>
      <path clip-path="url(#clipPath3108)" d="M -157.90625,33.745687 C -158.21121,35.386177 -159.00162,36.936857 -160.25,38.151937 C -165.94495,43.846887 -168.60388,51.380287 -168.1875,58.776937 C -167.83474,52.377417 -165.17697,46.078907 -160.25,41.151937 C -158.25381,39.208997 -157.41884,36.412897 -157.90625,33.745687 z M -124.28125,33.839437 C -124.75058,36.410297 -123.99327,39.163987 -122,41.151937 C -117.07303,46.078907 -114.41526,52.377417 -114.0625,58.776937 C -113.64612,51.380287 -116.30505,43.846887 -122,38.151937 C -123.22619,36.929027 -123.98786,35.419277 -124.28125,33.839437 z M -184.5625,58.745687 C -184.95841,70.399217 -180.74753,82.185657 -171.90625,91.026937 C -154.98158,107.95164 -127.26843,107.95163 -110.34375,91.026937 C -101.5026,82.185787 -97.291733,70.399037 -97.6875,58.745687 C -98.04935,69.400437 -102.26022,79.943407 -110.34375,88.026937 C -127.26843,104.95163 -154.98158,104.95164 -171.90625,88.026937 C -179.98965,79.943537 -184.20052,69.400257 -184.5625,58.745687 z M -148.625,64.308187 L -148.625,67.308187 C -148.66326,70.012957 -147.24248,72.538387 -144.90625,73.901937 C -142.57003,75.265487 -139.67998,75.265487 -137.34375,73.901937 C -135.00752,72.538387 -133.58674,70.012957 -133.625,67.308187 L -133.625,64.308187 C -133.58674,67.012957 -135.00752,69.538387 -137.34375,70.901937 C -139.67998,72.265487 -142.57003,72.265487 -144.90625,70.901937 C -147.24248,69.538387 -148.66326,67.012957 -148.625,64.308187 z" id="path3039" style="fill:#ffffff;fill-opacity:1;stroke:none;stroke-width:16.49500084;stroke-linecap:round;stroke-linejoin:round;stroke-miterlimit:4;stroke-dasharray:none;stroke-dashoffset:4.15;stroke-opacity:1;filter:url(#filter3104)" transform="translate(205.1,0)"/>
    </g>
  </g>
</svg>
